<?xml version="1.0" standalone="no"?>
<!DOCTYPE svg PUBLIC "-//W3C//DTD SVG 20010904//EN"
 "http://www.w3.org/TR/2001/REC-SVG-20010904/DTD/svg10.dtd">
<svg version="1.0" xmlns="http://www.w3.org/2000/svg"
 width="512.000000pt" height="512.000000pt" viewBox="0 0 512.000000 512.000000"
 preserveAspectRatio="xMidYMid meet">

<g transform="translate(0.000000,512.000000) scale(0.100000,-0.100000)"
fill="#000000" stroke="none">
<path d="M400 5113 c-175 -18 -311 -125 -373 -292 -19 -51 -21 -84 -25 -391
-2 -189 0 -371 6 -417 22 -180 131 -318 293 -371 51 -16 182 -17 2064 -17
1882 0 2013 1 2064 17 162 53 271 191 293 371 6 46 8 228 6 417 -4 307 -6 340
-25 391 -49 132 -147 230 -279 276 -46 16 -187 18 -2019 19 -1084 0 -1986 -1
-2005 -3z m430 -455 l30 -30 0 -260 0 -260 -34 -34 c-38 -38 -77 -44 -126 -19
-56 29 -60 50 -60 319 l0 244 26 31 c46 55 114 59 164 9z m429 1 c16 -15 31
-42 35 -60 10 -51 7 -431 -4 -471 -29 -103 -159 -118 -204 -23 -15 30 -17 67
-14 279 3 244 3 245 27 270 47 50 113 52 160 5z m430 0 c16 -16 31 -44 34 -66
10 -58 8 -413 -3 -458 -18 -79 -92 -115 -160 -80 -58 30 -61 50 -58 325 3 248
3 248 27 274 47 50 113 52 160 5z m1604 -83 c187 -67 201 -324 22 -407 -144
-66 -304 39 -305 200 0 120 98 220 215 220 17 0 47 -6 68 -13z m638 2 c87 -25
159 -122 159 -210 0 -63 -43 -141 -98 -182 -40 -28 -51 -31 -121 -31 -68 0
-83 3 -119 27 -22 15 -53 48 -68 74 -56 95 -40 201 41 272 66 58 129 73 206
50z"/>
<path d="M308 3481 c-164 -53 -277 -188 -299 -359 -11 -87 -11 -647 0 -734 17
-127 98 -256 198 -315 24 -14 71 -34 104 -44 59 -18 130 -19 2054 -19 1924 0
1995 1 2054 19 124 38 209 112 263 227 41 88 47 153 47 499 0 346 -6 411 -47
499 -54 115 -139 189 -263 227 -59 18 -129 19 -2057 18 -1904 0 -2000 -1
-2054 -18z m502 -418 c49 -34 49 -33 49 -308 0 -275 0 -274 -49 -308 -49 -34
-126 -12 -155 43 -22 43 -22 487 0 530 29 55 106 77 155 43z m448 -17 l37 -34
0 -257 0 -257 -37 -34 c-42 -38 -80 -44 -129 -18 -53 27 -59 59 -59 307 0 247
5 278 54 308 48 29 90 25 134 -15z m413 17 c49 -29 54 -57 54 -308 0 -251 -5
-279 -54 -308 -55 -32 -127 -12 -156 43 -22 43 -22 487 0 530 29 56 101 75
156 43z m1655 -116 c37 -19 91 -79 105 -116 6 -14 10 -48 10 -76 0 -62 -11
-93 -52 -139 -45 -52 -100 -77 -164 -77 -69 0 -115 22 -165 78 -44 50 -55 88
-48 168 12 145 180 232 314 162z m639 4 c74 -33 125 -114 125 -196 0 -122 -95
-214 -220 -215 -179 0 -283 202 -177 343 62 81 179 111 272 68z"/>
<path d="M375 1883 c-200 -28 -342 -177 -367 -386 -6 -46 -8 -228 -6 -417 4
-307 6 -340 25 -391 51 -139 161 -242 298 -280 75 -21 4005 -21 4080 0 137 38
247 141 298 280 19 51 21 84 25 391 2 189 0 371 -6 417 -21 177 -128 314 -288
370 -46 17 -178 18 -2039 19 -1094 1 -2003 -1 -2020 -3z m451 -447 l34 -34 0
-260 0 -260 -30 -30 c-50 -50 -118 -46 -164 9 l-26 31 0 244 c0 268 4 289 58
318 47 26 90 20 128 -18z m429 1 c43 -43 47 -73 43 -332 -3 -224 -6 -235 -58
-272 -48 -33 -128 -9 -157 48 -9 17 -13 92 -13 257 0 196 3 240 16 268 34 70
115 85 169 31z m430 0 c43 -43 48 -83 43 -343 -3 -212 -6 -225 -58 -261 -48
-33 -128 -9 -157 48 -9 17 -13 93 -13 262 0 260 4 282 58 311 47 26 90 20 127
-17z m1630 -96 c147 -68 171 -278 42 -372 -82 -59 -171 -62 -254 -6 -175 119
-90 397 122 397 28 0 68 -9 90 -19z m677 -18 c55 -40 98 -119 98 -181 0 -112
-109 -222 -220 -222 -75 0 -169 63 -201 134 -46 102 1 234 103 285 65 33 162
26 220 -16z"/>
<path d="M4650 472 c-70 -35 -88 -128 -36 -189 24 -28 69 -36 113 -20 18 7 21
5 16 -13 -7 -28 -50 -60 -79 -60 -20 0 -24 -5 -24 -31 0 -29 1 -30 33 -24 99
21 147 83 147 191 0 80 -13 110 -59 141 -41 28 -65 29 -111 5z m90 -62 c6 -12
10 -38 8 -58 -3 -32 -7 -37 -31 -40 -16 -2 -35 2 -43 9 -16 13 -19 62 -4 90
14 25 56 25 70 -1z"/>
<path d="M4940 472 c-70 -35 -88 -128 -36 -189 24 -28 69 -36 113 -20 18 7 21
5 16 -13 -7 -28 -50 -60 -79 -60 -20 0 -24 -5 -24 -31 0 -29 1 -30 33 -24 99
21 147 83 147 191 0 80 -13 110 -59 141 -41 28 -65 29 -111 5z m90 -62 c6 -12
10 -38 8 -58 -3 -32 -7 -37 -31 -40 -16 -2 -35 2 -43 9 -16 13 -19 62 -4 90
14 25 56 25 70 -1z"/>
</g>
</svg>
